HIERARCHY
ROOT SpineBase
{
  OFFSET 0.000000 0.000000 0.000000
  CHANNELS 6 Xposition Yposition Zposition Zrotation Xrotation Yrotation
  JOINT SpineMid
  {
    OFFSET 0.000000 25.299775 0.000000
    CHANNELS 3 Zrotation Xrotation Yrotation
    JOINT SpineShoulder
    {
      OFFSET -0.009658 18.771396 -0.551047
      CHANNELS 3 Zrotation Xrotation Yrotation
      JOINT Neck
      {
        OFFSET -0.025133 6.190455 -0.464370
        CHANNELS 3 Zrotation Xrotation Yrotation
        JOINT Head
        {
          OFFSET 3.250512 11.735553 -2.207304
          CHANNELS 3 Zrotation Xrotation Yrotation
          End Site
          {
            OFFSET 0 0 0
          }
        }
      }
      JOINT ShoulderLeft
      {
        OFFSET -14.005812 -4.130404 -8.059932
        CHANNELS 3 Zrotation Xrotation Yrotation
        JOINT ElbowLeft
        {
          OFFSET 2.867824 -19.650966 -7.818848
          CHANNELS 3 Zrotation Xrotation Yrotation
          JOINT WristLeft
          {
            OFFSET 17.592995 8.137206 -12.535783
            CHANNELS 3 Zrotation Xrotation Yrotation
            JOINT HandLeft
            {
              OFFSET 11.090472 5.457104 -3.096003
              CHANNELS 3 Zrotation Xrotation Yrotation
              JOINT HandTipLeft
              {
                OFFSET 6.429272 2.388179 -0.836886
                CHANNELS 3 Zrotation Xrotation Yrotation
                End Site
                {
                  OFFSET 0 0 0
                }
              }
              JOINT ThumbLeft
              {
                OFFSET 1.374579 0.688614 1.776592
                CHANNELS 3 Zrotation Xrotation Yrotation
                End Site
                {
                  OFFSET 0 0 0
                }
              }
            }
          }
        }
      }
      JOINT ShoulderRight
      {
        OFFSET 14.954921 -2.588996 0.663332
        CHANNELS 3 Zrotation Xrotation Yrotation
        JOINT ElbowRight
        {
          OFFSET 5.103901 -18.724828 -7.253410
          CHANNELS 3 Zrotation Xrotation Yrotation
          JOINT WristRight
          {
            OFFSET -5.201984 11.227073 -20.583754
            CHANNELS 3 Zrotation Xrotation Yrotation
            JOINT HandRight
            {
              OFFSET -3.156105 -2.130280 -2.572513
              CHANNELS 3 Zrotation Xrotation Yrotation
              JOINT HandTipRight
              {
                OFFSET -5.572522 -1.523496 -1.884031
                CHANNELS 3 Zrotation Xrotation Yrotation
                End Site
                {
                  OFFSET 0 0 0
                }
              }
              JOINT ThumbRight
              {
                OFFSET -6.352710 -2.052677 -0.364367
                CHANNELS 3 Zrotation Xrotation Yrotation
                End Site
                {
                  OFFSET 0 0 0
                }
              }
            }
          }
        }
      }
    }
  }
  JOINT HipLeft
  {
    OFFSET -5.370027 0.466629 -5.384675
    CHANNELS 3 Zrotation Xrotation Yrotation
    JOINT KneeLeft
    {
      OFFSET -6.291679 -29.903484 5.837860
      CHANNELS 3 Zrotation Xrotation Yrotation
      JOINT AnkleLeft
      {
        OFFSET -4.537347 -35.602455 9.799598
        CHANNELS 3 Zrotation Xrotation Yrotation
        JOINT FootLeft
        {
          OFFSET 2.505698 -4.458975 -7.772802
          CHANNELS 3 Zrotation Xrotation Yrotation
          End Site
          {
            OFFSET 0 0 0
          }
        }
      }
    }
  }
  JOINT HipRight
  {
    OFFSET 4.765472 0.358707 -1.031069
    CHANNELS 3 Zrotation Xrotation Yrotation
    JOINT KneeRight
    {
      OFFSET -1.623278 -30.498974 6.508246
      CHANNELS 3 Zrotation Xrotation Yrotation
      JOINT AnkleRight
      {
        OFFSET -5.875144 -34.656355 12.702655
        CHANNELS 3 Zrotation Xrotation Yrotation
        JOINT FootRight
        {
          OFFSET 1.754218 -3.502553 -12.028517
          CHANNELS 3 Zrotation Xrotation Yrotation
          End Site
          {
            OFFSET 0 0 0
          }
        }
      }
    }
  }
}
MOTION
Frames: 10
Frame Time: 0.033333
37.340898 72.453971 380.176123 -0.000000 0.000000 -23.245473 -0.000000 0.000000 23.245473 -0.000000 0.000000 0.000000 -0.000000 0.000000 0.000000 0.000000 0.000000 0.000000 -0.000000 0.000000 0.000000 -0.000000 0.000000 0.000000 -0.000000 0.000000 0.000000 -0.000000 0.000000 0.000000 0.000000 0.000000 0.000000 0.000000 0.000000 0.000000 -0.000000 0.000000 0.000000 -0.000000 0.000000 0.000000 -0.000000 0.000000 0.000000 -0.000000 0.000000 0.000000 0.000000 0.000000 0.000000 0.000000 0.000000 0.000000 -0.000000 0.000000 23.245473 -0.000000 0.000000 0.000000 -0.000000 0.000000 0.000000 0.000000 0.000000 0.000000 -0.000000 0.000000 23.245473 -0.000000 0.000000 0.000000 -0.000000 0.000000 0.000000 0.000000 0.000000 0.000000
37.348943 72.496833 380.124730 -0.036905 0.075413 -22.835527 0.063279 -0.055180 22.835581 -0.000000 0.000000 0.000000 -0.000000 0.000000 0.000000 0.000000 0.000000 0.000000 0.431917 1.013968 -0.027584 -0.825755 -0.825538 -0.996659 1.291775 -0.787106 2.804330 -0.400849 1.869561 -5.010980 0.000000 0.000000 0.000000 0.000000 0.000000 0.000000 -0.000000 0.000000 0.000000 3.930642 -4.617669 4.793498 -13.223865 5.877878 6.424747 8.606853 -2.417894 -6.692213 0.000000 0.000000 0.000000 0.000000 0.000000 0.000000 0.063279 -0.055180 22.835581 -0.000000 0.000000 0.000000 -0.089939 2.123788 1.310220 0.000000 0.000000 0.000000 0.063279 -0.055180 22.835581 -0.000000 0.000000 0.000000 -0.028975 -2.366746 -1.169709 0.000000 0.000000 0.000000
37.356773 72.518566 380.080500 -0.073547 0.137769 -22.566924 0.120786 -0.098995 22.567117 -0.000000 0.000000 0.000000 -0.000000 0.000000 0.000000 0.000000 0.000000 0.000000 0.742196 1.788826 -0.045496 -1.372923 -1.429950 -1.732950 2.427444 -1.502931 5.321257 -0.581634 3.185580 -8.564321 0.000000 0.000000 0.000000 0.000000 0.000000 0.000000 -0.000000 0.000000 0.000000 7.215847 -8.028135 8.644478 -24.832414 10.450939 14.288574 15.166248 -5.061375 -13.500248 0.000000 0.000000 0.000000 0.000000 0.000000 0.000000 -0.912011 0.699038 22.207407 1.210212 -2.031763 0.653184 -0.720324 4.537237 1.996765 0.000000 0.000000 0.000000 0.120786 -0.098995 22.567117 -0.000000 0.000000 0.000000 -0.102252 -4.608681 -2.277975 0.000000 0.000000 0.000000
37.364389 72.519169 380.043433 -0.109869 0.186935 -22.439843 0.172906 -0.130841 22.440219 -0.000000 0.000000 0.000000 -0.000000 0.000000 0.000000 0.000000 0.000000 0.000000 0.932108 2.328265 -0.049534 -1.660535 -1.816221 -2.230729 3.288189 -2.111374 7.364362 -0.490854 4.022754 -10.853046 0.000000 0.000000 0.000000 0.000000 0.000000 0.000000 -0.000000 0.000000 0.000000 9.638931 -10.397014 11.375178 -33.758324 13.583092 21.162596 18.817591 -6.263720 -19.745414 0.000000 0.000000 0.000000 0.000000 0.000000 0.000000 -1.255057 0.977678 21.944925 1.670085 -2.799147 0.910718 -0.992709 5.843484 2.534122 0.000000 0.000000 0.000000 -0.092524 0.717804 22.411164 -0.078160 -0.885743 0.029811 -0.205196 -6.595282 -3.261562 0.000000 0.000000 0.000000
37.371790 72.498644 380.013529 -0.145816 0.222821 -22.454036 0.219866 -0.150234 22.454607 -0.000000 0.000000 0.000000 -0.000000 0.000000 0.000000 0.000000 0.000000 0.000000 1.002745 2.635438 -0.036990 -1.700466 -1.985937 -2.505550 3.708418 -2.564326 8.658875 -0.002411 4.341620 -11.746385 0.000000 0.000000 0.000000 0.000000 0.000000 0.000000 -0.151480 -0.905052 -0.189866 11.261029 -10.994299 12.937129 -39.756032 15.808780 25.787628 19.719089 -4.699780 -25.892936 0.000000 0.000000 0.000000 0.000000 0.000000 0.000000 -1.524350 1.201851 21.852859 2.029769 -3.401950 1.116150 -1.193002 6.590444 2.807123 0.000000 0.000000 0.000000 -0.094730 0.924969 22.422976 -0.119311 -1.113908 0.032599 -0.314987 -8.193608 -4.052685 0.000000 0.000000 0.000000
37.378977 72.456989 379.990788 -0.181332 0.245376 -22.608844 0.261730 -0.156807 22.609590 -0.000000 0.000000 0.000000 -0.000000 0.000000 0.000000 0.000000 0.000000 0.000000 0.955000 2.712631 -0.006582 -1.498669 -1.939187 -2.568040 3.523832 -2.809092 8.917429 1.051896 4.059470 -10.933582 0.000000 0.000000 0.000000 0.000000 0.000000 0.000000 -0.184064 -1.235718 -0.268762 11.786915 -11.471004 13.309567 -43.036202 17.601264 27.867647 18.548671 0.252584 -32.698509 0.000000 0.000000 0.000000 0.000000 0.000000 0.000000 -1.720234 1.367861 21.930299 2.287173 -3.840776 1.266007 -1.318985 6.808295 2.830825 0.000000 0.000000 0.000000 -0.084223 1.113618 22.578976 -0.168352 -1.305875 0.031584 -0.405287 -9.286227 -4.588269 0.000000 0.000000 0.000000
37.344622 72.371913 379.963233 -0.301462 0.267065 -22.892785 0.381608 -0.128755 22.893917 -0.000000 0.000000 0.000000 -0.000000 0.000000 0.000000 0.000000 0.000000 0.000000 0.685045 2.554162 0.084146 -0.735287 -2.073188 -1.231923 0.638138 -1.281582 3.112009 6.136983 1.799192 -3.229618 0.000000 0.000000 0.000000 0.000000 0.000000 0.000000 -0.349017 -1.756637 -0.351381 7.991039 -9.149487 8.096203 -36.160760 18.761945 20.502402 10.878264 12.790292 -42.080200 0.000000 0.000000 0.000000 0.000000 0.000000 0.000000 -1.634501 1.432959 22.204064 2.361674 -3.924865 1.306320 -1.509365 7.305980 3.252320 0.000000 0.000000 0.000000 0.056844 1.192547 22.871208 -0.214316 -1.343642 0.023210 -0.166931 -7.941166 -4.494929 0.000000 0.000000 0.000000
37.375329 72.269386 379.941980 -0.310023 0.261302 -23.206432 0.387904 -0.117994 23.207538 -0.000000 0.000000 0.000000 -0.000000 0.000000 0.000000 0.000000 0.000000 0.000000 0.353148 2.135487 0.163305 0.295619 -0.903597 -1.870472 -1.908191 -2.774163 3.848041 8.817738 0.191966 3.927370 0.000000 0.000000 0.000000 0.000000 0.000000 0.000000 -0.363920 -2.183870 -0.465137 5.233442 -7.257642 4.430379 -31.117449 20.080594 15.107723 6.867688 24.941225 -55.221689 0.000000 0.000000 0.000000 0.000000 0.000000 0.000000 -1.729738 1.501612 22.487781 2.393989 -4.090415 1.342113 -1.729077 9.589154 4.712874 0.000000 0.000000 0.000000 0.044819 1.378721 23.189421 -0.244938 -2.348214 0.171363 -0.233229 -6.917703 -4.405746 0.000000 0.000000 0.000000
37.517143 72.149571 379.912437 -0.138327 0.264166 -23.970167 0.233719 -0.185185 23.970864 -0.000000 0.000000 0.000000 0.006134 -0.802093 0.223073 0.000000 0.000000 0.000000 0.203904 1.768256 0.172693 0.749943 -0.731133 -0.957980 -2.645823 -1.287834 0.235687 8.742347 -2.064575 11.077027 0.000000 0.000000 0.000000 0.000000 0.000000 0.000000 -0.328809 -2.436778 -0.548872 4.439284 -6.326000 3.560144 -28.904498 21.689472 11.399313 2.868764 29.763491 -58.010970 0.000000 0.000000 0.000000 0.000000 0.000000 0.000000 -2.285915 1.454069 23.147595 2.647846 -4.454728 1.455246 -1.272885 4.770765 1.656797 0.000000 0.000000 0.000000 -0.302535 1.449457 23.922681 -0.200309 -2.621813 0.193913 -1.426502 -15.365002 -7.136335 0.000000 0.000000 0.000000
37.599435 72.057442 379.946744 -0.063942 0.228609 -24.669007 0.153523 -0.181056 24.669377 -0.000000 0.000000 0.000000 -0.342666 -1.145825 0.248829 0.000000 0.000000 0.000000 0.073392 1.282114 0.156383 1.144230 -0.118486 -0.814958 -3.099473 -1.265853 -0.295369 10.778678 -3.338189 16.964775 0.000000 0.000000 0.000000 0.000000 0.000000 0.000000 -0.114531 -2.629186 -0.681270 7.327083 -7.064610 8.141340 -32.673298 19.653048 15.153246 7.378722 33.336922 -61.882935 0.000000 0.000000 0.000000 0.000000 0.000000 0.000000 -2.616492 1.565578 23.775140 2.712368 -4.797697 1.525753 -1.104431 4.381731 1.276272 0.000000 0.000000 0.000000 -0.445365 1.708449 24.624656 -0.383050 -2.940646 0.155544 -2.618051 -21.794495 -9.238518 0.000000 0.000000 0.000000
